HIERARCHY
ROOT Hips
{
    OFFSET 0.000000 0.000000 0.000000
    CHANNELS 6 Xposition Yposition Zposition Zrotation Xrotation Yrotation
    JOINT Spine
    {
        OFFSET -0.000000 14.517291 0.000000
        CHANNELS 3 Zrotation Xrotation Yrotation
        JOINT Spine1
        {
            OFFSET -0.000000 37.558300 0.000000
            CHANNELS 3 Zrotation Xrotation Yrotation
            JOINT Neck
            {
                OFFSET -0.000000 37.404057 3.400369
                CHANNELS 3 Zrotation Xrotation Yrotation
                JOINT Head
                {
                    OFFSET -0.000000 24.785618 -3.540803
                    CHANNELS 3 Zrotation Xrotation Yrotation
                    End Site
                    {
                        OFFSET -0.000000 35.408028 0.000000
                    }
                }
            }
            JOINT LeftShoulder
            {
                OFFSET 6.992933 33.973492 -0.192664
                CHANNELS 3 Zrotation Xrotation Yrotation
                JOINT LeftArm
                {
                    OFFSET 21.527611 0.000000 0.000000
                    CHANNELS 3 Zrotation Xrotation Yrotation
                    JOINT LeftForeArm
                    {
                        OFFSET 56.353916 0.000000 0.000000
                        CHANNELS 3 Zrotation Xrotation Yrotation
                        JOINT LeftHand
                        {
                            OFFSET 47.774071 0.000000 0.000000
                            CHANNELS 3 Zrotation Xrotation Yrotation
                            End Site
                            {
                                OFFSET 26.556021 0.000000 0.000000
                            }
                        }
                    }
                }
            }
            JOINT RightShoulder
            {
                OFFSET -7.065357 33.973492 -0.192664
                CHANNELS 3 Zrotation Xrotation Yrotation
                JOINT RightArm
                {
                    OFFSET -21.527611 0.000000 0.000000
                    CHANNELS 3 Zrotation Xrotation Yrotation
                    JOINT RightForeArm
                    {
                        OFFSET -56.353916 0.000000 0.000000
                        CHANNELS 3 Zrotation Xrotation Yrotation
                        JOINT RightHand
                        {
                            OFFSET -47.774071 0.000000 0.000000
                            CHANNELS 3 Zrotation Xrotation Yrotation
                            End Site
                            {
                                OFFSET -26.556021 0.000000 0.000000
                            }
                        }
                    }
                }
            }
        }
    }
    JOINT LeftUpLeg
    {
        OFFSET 17.704014 0.000000 0.000000
        CHANNELS 3 Zrotation Xrotation Yrotation
        JOINT LeftLeg
        {
            OFFSET -0.000000 -81.181816 0.000000
            CHANNELS 3 Zrotation Xrotation Yrotation
            JOINT LeftFoot
            {
                OFFSET -0.000000 -62.821102 0.000000
                CHANNELS 3 Zrotation Xrotation Yrotation
                JOINT LeftToeBase
                {
                    OFFSET -0.000000 -11.507608 26.556021
                    CHANNELS 3 Zrotation Xrotation Yrotation
                    End Site
                    {
                        OFFSET -0.000000 0.000000 7.081605
                    }
                }
            }
        }
    }
    JOINT RightUpLeg
    {
        OFFSET -17.704014 0.000000 0.000000
        CHANNELS 3 Zrotation Xrotation Yrotation
        JOINT RightLeg
        {
            OFFSET -0.000000 -81.181816 0.000000
            CHANNELS 3 Zrotation Xrotation Yrotation
            JOINT RightFoot
            {
                OFFSET -0.000000 -62.821102 0.000000
                CHANNELS 3 Zrotation Xrotation Yrotation
                JOINT RightToeBase
                {
                    OFFSET -0.000000 -11.507608 26.556021
                    CHANNELS 3 Zrotation Xrotation Yrotation
                    End Site
                    {
                        OFFSET -0.000000 0.000000 7.081605
                    }
                }
            }
        }
    }
}
MOTION
Frames:    12
Frame Time:    0.008333
31.016510    143.276093    52.310570    4.731380    2.659915    -65.736778    -0.230907    4.189355    -2.625116    -0.602179    -2.291657    -0.890452    21.990421    12.221300    21.838497    -18.950008    0.768545    19.453344    13.927399    -2.434453    -19.531416    -7.662253    -19.239511    -21.968487    29.606426    -22.229193    -41.219341    -10.443419    -7.416099    -41.271061    -6.218765    -2.626680    -7.180229    33.842457    -27.713276    47.189728    10.819116    -32.151413    110.599472    29.265652    -36.620171    38.079758    39.146019    -23.445444    34.032925    -38.045166    47.784191    12.065979    3.873501    -17.235270    44.653465    0.000000    0.000000    0.000000    -32.729340    -17.321228    -16.210466    3.294300    34.177166    -5.198101    20.910210    -8.207538    7.256255    0.000000    0.000000    0.000000    
31.022734    143.275543    52.307426    4.734365    2.651290    -65.742142    -0.226228    4.188904    -2.621968    -0.606148    -2.286924    -0.889430    21.982059    12.218022    21.830555    -18.939255    0.778502    19.447639    13.883390    -2.290302    -19.533985    -7.659755    -18.931469    -21.926214    29.120796    -21.959661    -41.674942    -10.549893    -7.153947    -41.208889    -6.214829    -2.622539    -7.192404    33.844700    -27.709850    47.198154    10.835560    -32.138664    110.589890    29.254433    -36.626034    38.091534    39.135307    -23.443245    34.037640    -38.029812    47.779648    12.047707    3.864472    -17.222704    44.660477    0.000000    0.000000    0.000000    -32.739784    -17.330217    -16.207588    3.296008    34.183739    -5.193730    20.918753    -8.200186    7.237977    0.000000    0.000000    0.000000    
31.027817    143.271088    52.304779    4.731659    2.645684    -65.743507    -0.200705    4.192869    -2.624201    -0.623310    -2.271595    -0.890085    22.120346    12.336398    21.825207    -19.244661    0.698272    19.408342    13.834295    -2.145118    -19.507149    -7.648497    -18.601135    -21.902214    28.666115    -21.664261    -42.084270    -10.660091    -6.856292    -41.257687    -6.230123    -2.641279    -7.216837    33.873173    -27.692204    47.214436    10.849669    -32.114891    110.590706    29.229715    -36.633682    38.067150    39.131752    -23.439325    34.035645    -38.041260    47.782841    12.039702    3.888190    -17.218739    44.674603    0.000000    0.000000    0.000000    -32.748493    -17.336658    -16.198450    3.297113    34.192627    -5.188159    20.833576    -8.171119    7.318088    0.000000    0.000000    0.000000    
31.028557    143.269516    52.306026    4.719434    2.634188    -65.742569    -0.197688    4.201329    -2.621678    -0.615889    -2.259295    -0.888965    22.081282    12.287233    21.820942    -19.179932    0.747749    19.411768    13.791595    -1.988212    -19.521505    -7.645274    -18.315639    -21.841713    28.150015    -21.399824    -42.546509    -10.855062    -6.576725    -41.274487    -6.233289    -2.652027    -7.224667    33.876762    -27.705076    47.211010    10.878875    -32.073597    110.587372    29.207556    -36.641052    38.042473    39.118454    -23.428558    34.005447    -38.047325    47.765518    12.060954    3.885867    -17.219156    44.664078    0.000000    0.000000    0.000000    -32.751129    -17.321331    -16.186663    3.298791    34.196449    -5.189213    20.924980    -8.199306    7.244744    0.000000    0.000000    0.000000    
31.033056    143.267242    52.305611    4.714749    2.627846    -65.745636    -0.183836    4.195058    -2.614719    -0.626528    -2.236140    -0.886586    21.983355    12.158692    21.817362    -18.981661    0.855312    19.428507    13.762699    -1.834466    -19.541889    -7.642830    -17.988914    -21.787619    27.826180    -21.042068    -42.883816    -11.117368    -6.131329    -41.296680    -6.225323    -2.656656    -7.241020    33.856915    -27.690657    47.209362    10.891003    -32.083107    110.583961    29.207430    -36.657951    38.066284    39.110825    -23.430311    34.029449    -38.013992    47.798607    12.032169    3.883646    -17.225580    44.656555    0.000000    0.000000    0.000000    -32.753616    -17.320389    -16.176834    3.299001    34.200054    -5.175805    20.931078    -8.211772    7.221542    0.000000    0.000000    0.000000    
31.037924    143.262634    52.308739    4.707937    2.620112    -65.750412    -0.167652    4.189537    -2.611937    -0.635746    -2.208312    -0.885531    21.969070    12.109577    21.815050    -18.954519    0.911466    19.429121    13.733320    -1.701096    -19.557211    -7.657515    -17.629128    -21.718668    27.306717    -20.840927    -43.340580    -11.233517    -5.955962    -41.345924    -6.233693    -2.670136    -7.244152    33.860973    -27.695734    47.207623    10.906568    -32.066948    110.584717    29.159723    -36.685024    38.026497    39.108185    -23.416977    34.016033    -38.040237    47.779182    12.068009    3.885428    -17.228731    44.651917    0.000000    0.000000    0.000000    -32.758957    -17.315619    -16.161854    3.308472    34.201237    -5.206275    20.913151    -8.217716    7.252129    0.000000    0.000000    0.000000    
31.046122    143.259857    52.309425    4.713648    2.612757    -65.749245    -0.154473    4.178133    -2.608212    -0.645512    -2.188707    -0.884226    21.968376    12.088065    21.813822    -18.965530    0.939693    19.426592    13.689979    -1.574951    -19.595200    -7.653171    -17.244179    -21.634134    26.879353    -20.582289    -43.711987    -11.442023    -5.671170    -41.412697    -6.235697    -2.665196    -7.265844    33.857067    -27.684818    47.223438    10.908774    -32.090813    110.587029    29.177834    -36.705715    38.024639    39.099140    -23.425749    33.998581    -38.055630    47.777214    12.083729    3.867660    -17.235533    44.661263    0.000000    0.000000    0.000000    -32.774521    -17.319899    -16.174448    3.311947    34.203934    -5.201357    20.912891    -8.216232    7.249037    0.000000    0.000000    0.000000    
31.048912    143.254532    52.311661    4.709943    2.604004    -65.747780    -0.136702    4.169383    -2.602777    -0.659844    -2.163012    -0.882308    21.950888    12.059464    21.809507    -18.943579    0.967291    19.424168    13.640237    -1.456478    -19.633430    -7.649658    -16.879816    -21.563637    26.426682    -20.314505    -44.087318    -11.645954    -5.397238    -41.426754    -6.245647    -2.683117    -7.267828    33.832741    -27.670462    47.190468    10.900158    -32.110382    110.591331    29.166239    -36.718357    38.024792    39.092808    -23.427776    34.001064    -38.051685    47.797218    12.083360    3.860333    -17.242222    44.645187    0.000000    0.000000    0.000000    -32.785763    -17.312637    -16.189758    3.300304    34.206585    -5.186563    20.929043    -8.220433    7.270020    0.000000    0.000000    0.000000    
31.053114    143.251617    52.315926    4.711607    2.592390    -65.745697    -0.138075    4.157499    -2.598304    -0.649129    -2.140319    -0.880474    21.944538    12.050797    21.802114    -18.957876    0.987317    19.416286    13.582461    -1.327512    -19.670584    -7.644492    -16.532204    -21.495823    25.991472    -19.940992    -44.452915    -11.707570    -5.074888    -41.345444    -6.263766    -2.682269    -7.277889    33.832619    -27.672487    47.193214    10.888903    -32.123730    110.586685    29.179497    -36.713223    38.023113    39.080757    -23.432579    33.987839    -38.064796    47.807980    12.077398    3.841332    -17.259893    44.674362    0.000000    0.000000    0.000000    -32.802788    -17.313313    -16.232113    3.274816    34.210110    -5.163774    20.863546    -8.179017    7.354127    0.000000    0.000000    0.000000    
31.058947    143.248138    52.317356    4.715815    2.584548    -65.740814    -0.125611    4.144060    -2.603174    -0.669332    -2.120136    -0.882250    21.942938    12.015254    21.804598    -18.932667    1.027673    19.421432    13.540749    -1.186960    -19.682949    -7.637207    -16.193270    -21.456242    25.442333    -19.694576    -44.831722    -11.839344    -4.891272    -41.424633    -6.257173    -2.694576    -7.269285    33.807636    -27.670977    47.170258    10.887779    -32.132778    110.589966    29.147606    -36.729935    38.027355    39.071777    -23.441174    33.974201    -38.077354    47.802765    12.084248    3.854445    -17.247520    44.679451    0.000000    0.000000    0.000000    -32.812252    -17.312733    -16.257755    3.251326    34.214340    -5.147810    20.868021    -8.183242    7.380880    0.000000    0.000000    0.000000    
31.064165    143.248566    52.319672    4.720554    2.574407    -65.739044    -0.118805    4.130991    -2.598512    -0.682927    -2.094247    -0.880712    21.960320    11.983261    21.812160    -18.946783    1.065462    19.426451    13.493790    -1.058082    -19.699961    -7.625931    -15.873693    -21.424477    24.944147    -19.291683    -45.191044    -11.870882    -4.586132    -41.344566    -6.254648    -2.700065    -7.289828    33.778820    -27.638540    47.171177    10.861048    -32.203175    110.585388    29.178196    -36.751431    38.042004    39.055496    -23.445610    33.968014    -38.071297    47.794594    12.084054    3.849604    -17.239399    44.684174    0.000000    0.000000    0.000000    -32.825649    -17.316475    -16.271292    3.243479    34.221214    -5.144047    20.854069    -8.182734    7.388402    0.000000    0.000000    0.000000    
31.067902    143.244202    52.320927    4.720877    2.568077    -65.728752    -0.101304    4.125616    -2.607160    -0.710927    -2.086482    -0.883822    21.972380    11.990254    21.808155    -18.954227    1.055969    19.420681    13.457566    -0.900288    -19.703598    -7.619589    -15.581063    -21.410608    24.378801    -18.967396    -45.562016    -12.046823    -4.339748    -41.264309    -6.247303    -2.710770    -7.294361    33.775639    -27.627081    47.157681    10.865141    -32.208607    110.595360    29.223021    -36.745953    38.060734    39.045818    -23.452509    33.953362    -38.083878    47.796326    12.083288    3.853760    -17.247732    44.698200    0.000000    0.000000    0.000000    -32.832626    -17.310953    -16.296562    3.224534    34.233284    -5.111146    20.957489    -8.224844    7.306948    0.000000    0.000000    0.000000    
